# xmcd
#
# Track frame offsets: 
#        150
#        23236
#        42511
#        78331
#        97021
#        115384
#        134694
#        162579
#        179604
#        200642
#        222181
#        239785
#        258684
#        272268
#
# Disc length: 4045 seconds
#
# Revision: 0
# Processed by: cddbd v1.5.2PL0 Copyright (c) Steve Scherf et al.
# Submitted via: ExactAudioCopy v1.3
#
DISCID=db0fcb0e
DTITLE=Dennis Jones Band - We3 (Live)
DYEAR=2018
DGENRE=Electric Blues
TTITLE0=Blue over You
TTITLE1=When I Die
TTITLE2=Passion for the Blues
TTITLE3=Stray Bullet
TTITLE4=Hot Sauce
TTITLE5=Don't Worry About Me
TTITLE6=Super Deluxe
TTITLE7=Enjoy the Ride
TTITLE8=You Don't Know a Thing About Love
TTITLE9=Kill the Pain
TTITLE10=Big Black Cat
TTITLE11=Devil's Nightmare
TTITLE12=I'm Good
TTITLE13=Born Under a Bad Sign
EXTD=
EXTT0=
EXTT1=
EXTT2=
EXTT3=
EXTT4=
EXTT5=
EXTT6=
EXTT7=
EXTT8=
EXTT9=
EXTT10=
EXTT11=
EXTT12=
EXTT13=
PLAYORDER=
